<svg xmlns="http://www.w3.org/2000/svg" width="512" height="512"><circle cx="256" cy="501.98" r="10" fill="#a77e42" data-original="#000000"/><path d="M441.863 0H70.137C31.463 0 .007 31.733.007 70.407c0 .18-.01-.18 0 0L20.04 442.143C20.193 480.687 51.597 512 90.176 512h120.911c5.533 0 10.02-4.486 10.02-10.02s-4.486-10.02-10.02-10.02H90.176c-27.624 0-50.105-22.743-50.105-50.368 0-.18.01.18 0 0L20.04 69.879c.139-27.506 22.559-49.84 50.097-49.84h371.726c27.538 0 49.958 22.334 50.097 49.84l-20.031 371.714c-.01.18 0-.18 0 0 0 27.624-22.481 50.368-50.105 50.368H300.913c-5.533 0-10.02 4.486-10.02 10.02S295.38 512 300.913 512h120.911c38.579 0 69.983-31.313 70.136-69.857l20.033-371.737c.01-.18 0 .18 0 0C511.993 31.733 480.537 0 441.863 0z" fill="#a77e42" data-original="#000000"/><path d="M153.85 229.617h204.3a10.02 10.02 0 009.177-5.998l43.468-99.194a10.02 10.02 0 00-3.024-11.93c-19.694-15.321-74.205-50.981-151.389-51.21-.251 0 .251 0 0 0-77.552 0-132.324 35.786-152.151 51.21a10.02 10.02 0 00-3.024 11.93l43.468 99.194a10.015 10.015 0 009.175 5.998zm102.136-46.783c10.609 0 20.899 2.203 29.758 6.369 10.488 4.932 18.102 12.174 21.821 20.375H204.417c7.006-15.434 27.671-26.744 51.569-26.744zm-93.857-81.495l7.819 16.588a10.02 10.02 0 009.069 5.75 9.971 9.971 0 004.265-.959c5.006-2.36 7.151-8.33 4.791-13.335l-7.262-15.407c18.64-6.442 40.517-11.349 65.17-12.419v17.135c0 5.534 4.486 10.02 10.02 10.02s10.02-4.486 10.02-10.02V81.559a229.664 229.664 0 0164.864 12.31l-6.482 16.424c-2.031 5.147.494 10.967 5.642 12.999a9.978 9.978 0 003.675.702c3.993 0 7.768-2.404 9.323-6.343l6.494-16.455c17.191 7.612 30.618 16.012 39.706 22.488l-37.641 85.895h-22.858c-4.023-16.014-16.358-29.991-34.47-38.509-11.509-5.413-24.749-8.275-38.287-8.275-14.226 0-27.477 3.097-38.737 8.481l-13.786-29.251c-2.36-5.005-8.327-7.152-13.336-4.792-5.005 2.36-7.151 8.33-4.792 13.335l15.002 31.831c-8.478 7.538-14.488 16.839-17.076 27.181H160.4l-37.641-85.896c9.04-6.444 22.348-14.775 39.37-22.345zm-8.279 168.357h204.3c5.533 0 10.02-4.486 10.02-10.02s-4.486-10.02-10.02-10.02h-204.3c-5.533 0-10.02 4.486-10.02 10.02s4.487 10.02 10.02 10.02zM78.952 422.088c0-5.534-4.486-10.02-10.02-10.02-5.533 0-10.02 4.486-10.02 10.02 0 27.73 22.561 50.291 50.292 50.291 5.533 0 10.02-4.486 10.02-10.02s-4.486-10.02-10.02-10.02c-16.681.001-30.252-13.57-30.252-30.251zm312.821 40.271c0 5.534 4.486 10.02 10.02 10.02 27.731 0 50.292-22.561 50.292-50.291 0-5.534-4.486-10.02-10.02-10.02s-10.02 4.486-10.02 10.02c0 16.681-13.571 30.252-30.252 30.252-5.534 0-10.02 4.485-10.02 10.019z" fill="#a77e42" data-original="#000000"/></svg>