<svg xmlns="http://www.w3.org/2000/svg" width="512" height="512" viewBox="0 0 60 60"><g fill="#a77e42"><path d="M57 30c0-10.654-6.589-19-15-19a12.05 12.05 0 00-5.7 1.354 13.655 13.655 0 01-3.3 1.221 39.709 39.709 0 00-.129-1.876 6.9 6.9 0 012.509-2.358 5.173 5.173 0 002.53.659q.273 0 .546-.027a7.7 7.7 0 005.463-2.987 5.236 5.236 0 012.219-1.716h.012a1.249 1.249 0 00.821-.907 1.212 1.212 0 00-.357-1.149c-.921-.85-4.271-3.59-8.62-3.165a5.632 5.632 0 00-4.676 3.571 17.022 17.022 0 00-1.767 1.034 19.773 19.773 0 00-1.47-3.608 1.987 1.987 0 00-1.315-.995A2.028 2.028 0 0027.115.4l-1.667 1.231a2.025 2.025 0 00-.594 2.521 24.589 24.589 0 012.067 9.4 13.665 13.665 0 01-3.213-1.2A12.056 12.056 0 0018 11C9.589 11 3 19.346 3 30c0 11.091 3.536 18.2 6.5 22.22C13.05 57.019 17.839 60 22 60a6.9 6.9 0 003.2-.748 10.635 10.635 0 019.587 0A6.9 6.9 0 0038 60c4.161 0 8.95-2.981 12.5-7.78C53.464 48.2 57 41.091 57 30zM38.192 2.035A7.45 7.45 0 0138.917 2a9.437 9.437 0 015.418 1.924 9.233 9.233 0 00-1.9 1.717 5.7 5.7 0 01-4.182 2.34 3.106 3.106 0 01-2.366-.707A2.575 2.575 0 0135 5.4a3.46 3.46 0 013.192-3.365zM28.321 2a19.53 19.53 0 011.689 4.581 1 1 0 001.619.521 12.416 12.416 0 011.452-1.056 4.5 4.5 0 00.758 1.9A7.332 7.332 0 0030.9 11.18a1.021 1.021 0 00-.054.442c.11 1.066.176 2.211.225 3.378l-2.09.01c-.131-6.365-1.518-10.089-2.335-11.777zM38 58a4.872 4.872 0 01-2.3-.531 12.636 12.636 0 00-11.413 0A4.87 4.87 0 0122 58c-6.948 0-17-9.971-17-28 0-9.532 5.71-17 13-17a10.083 10.083 0 014.776 1.126 15.653 15.653 0 004.31 1.5A1.977 1.977 0 0028.95 17h2.12a1.951 1.951 0 001.872-1.384 15.646 15.646 0 004.286-1.492A10.077 10.077 0 0142 13c7.29 0 13 7.468 13 17 0 18.029-10.052 28-17 28z" data-original="#000000"/><path d="M18 16c-4.916 0-9.024 4.878-9.99 11.863a1 1 0 00.853 1.127A.925.925 0 009 29a1 1 0 00.989-.863C10.816 22.169 14.109 18 18 18a1 1 0 000-2z" data-original="#000000"/></g></svg>