<svg xmlns="http://www.w3.org/2000/svg" width="512" height="512" viewBox="0 0 512.009 512.009"><path d="M441.071 192.046l-3.729-.042c-52 0-98.785 29.068-122.577 74.587-14.966-6.75-31.194-10.587-48.09-10.587-27.913 0-54.163 9.952-74.945 27.285-.401-18.324-2.788-36.573-5.117-52.785-1.995-13.861-3.909-27.31-4.034-38.509l53.93.009c8.542 0 16.583-3.333 22.625-9.375l42.667-42.667c12.195-12.195 12.279-31.755.638-44.289 4.066-6.094 6.003-13.393 5.258-20.846-.948-9.573-6.083-18.135-14.094-23.469l-25.896-17.26a75.703 75.703 0 00-42.135-12.76c-31.375 0-60.865 12.219-83.052 34.406-40.866 40.864-73.022 87.656-95.605 139.083-27.208 61.958-41 107.667-41 135.844 0 16.146-1.396 29.26-4.156 38.99-5.896 20.781 3.385 42.948 22.563 53.906 76.823 43.896 164.198 67.104 252.677 67.104h15.427a508.419 508.419 0 00161.063-26.135l7.469-2.5a74.552 74.552 0 0051.052-70.823V266.765c-.001-40.167-31.824-73.688-70.939-74.719zm49.604 199.167a53.261 53.261 0 01-36.479 50.594l-7.469 2.5a487.265 487.265 0 01-154.302 25.031h-15.427c-84.771 0-168.49-22.229-242.094-64.292-10.646-6.083-15.833-18.24-12.625-29.563 3.302-11.615 4.969-26.698 4.969-44.813 0-24.854 13.552-68.854 39.208-127.26 21.5-49 52.167-93.604 91.146-132.583 18.156-18.156 42.292-28.156 67.969-28.156a54.461 54.461 0 0130.302 9.177l25.896 17.26a10.606 10.606 0 014.698 7.823 10.622 10.622 0 01-3.063 8.594l-34.073 34.073a11.947 11.947 0 01-13.802 2.24c-3.479-1.74-5.833-4.938-6.458-8.781s.594-7.625 3.344-10.375l9.802-9.802c4.167-4.167 4.167-10.917 0-15.083-4.167-4.167-10.917-4.167-15.083 0l-9.802 9.802c-7.656 7.656-11.063 18.188-9.323 28.885 1.74 10.688 8.292 19.594 17.979 24.438 12.813 6.396 28.281 3.917 38.427-6.24l23.332-23.332c2.883 4.154 2.668 9.832-1.03 13.53l-42.667 42.667a10.74 10.74 0 01-7.542 3.125l-49.807-.008c.669-1.107 1.311-2.246 2.182-3.117 4.167-4.167 4.167-10.917 0-15.083-4.167-4.167-10.917-4.167-15.083 0-17.448 17.448-13.208 46.938-8.302 81.083 2.542 17.729 5.177 36.063 5.177 54.458 0 43.938-33.25 53.292-34.667 53.667-5.667 1.469-9.104 7.229-7.677 12.917 1.208 4.854 5.552 8.083 10.333 8.083.854 0 1.729-.104 2.594-.323 12.772-3.191 33.703-15.448 44.224-40.589.145-.194.381-.267.516-.474 17.792-27.521 47.948-43.948 80.677-43.948 25.479 0 49.479 9.875 67.573 27.813 4.188 4.146 10.948 4.125 15.083-.063 4.146-4.188 4.125-10.938-.063-15.083-4.935-4.893-10.345-9.112-15.939-12.999 20.049-38.836 59.803-63.668 104.012-63.668l3.156.042c27.667.729 50.177 24.677 50.177 53.385v124.448z" fill="#a77e42" data-original="#000000"/></svg>