<svg xmlns="http://www.w3.org/2000/svg" width="512" height="512"><path d="M453.394 278.29c15.78-25.668 25.798-52.439 25.798-79.046 0-79.152-56.924-140.804-130.317-140.804-40.569 0-70.957 18.444-91.875 42.267-.352.358-.674.733-.993 1.121-20.978-24.361-51.688-43.388-92.881-43.388-73.393 0-130.317 61.652-130.317 140.804 0 26.538 10.153 53.324 26.127 79.046v1c58.926 94.88 197.071 174.27 197.071 174.27l.993-.031s137.854-79.021 196.394-174.239v-1z" fill="none" stroke="#a77e42" stroke-width="20" stroke-linecap="round" stroke-linejoin="round" stroke-miterlimit="10" data-original="#000000"/><path d="M10 278.29h127.734l41.726-59.669 57.326 109.981 74.205-155.204 50.826 104.892H502" fill="none" stroke="#a77e42" stroke-width="20" stroke-linecap="round" stroke-linejoin="round" stroke-miterlimit="10" data-original="#000000"/></svg>