<svg xmlns="http://www.w3.org/2000/svg" version="1.1" xmlns:xlink="http://www.w3.org/1999/xlink" xmlns:svgjs="http://svgjs.com/svgjs" width="512" height="512" x="0" y="0" viewBox="0 0 64 64" style="enable-background:new 0 0 512 512" xml:space="preserve" class=""><g><path d="m42.83 12.603 7.125-6.234A3.066 3.066 0 0 0 47.937 1c-1.47 0-2.919.497-4.079 1.399L36.386 8.21c-.13.101-.233.233-.3.383l-1.53 3.441a48.844 48.844 0 0 0-3.466 11.357 49.917 49.917 0 0 0-13.476 12.624l-5.421 7.393a1 1 0 0 0-.183.45l-1.892 13.239A4.009 4.009 0 0 0 7 61v1a1 1 0 0 0 1 1h8a1 1 0 0 0 .975-.775l2.927-12.686 7.053-6.171 7.112 7.112 1.947 11.684A1 1 0 0 0 37 63h7a1 1 0 0 0 1-1v-1a4.01 4.01 0 0 0-3-3.874V50a1 1 0 0 0-.063-.351l-1.871-4.988a6.38 6.38 0 0 0 4.066-4.19l2.824-9.177c.042-.135.054-.277.037-.418l-.516-4.13a7.315 7.315 0 0 0 7.094-1.903l1.272-1.272A7.315 7.315 0 0 0 57 18.364C57 14.303 53.697 11 49.636 11a7.315 7.315 0 0 0-5.207 2.157l-1.272 1.272a7.307 7.307 0 0 0-2.139 4.834l-.79-.592zm-6.446.245 1.428-3.212 7.274-5.657A4.656 4.656 0 0 1 47.937 3a1.064 1.064 0 0 1 .7 1.864l-7.295 6.383a1 1 0 0 0-.26.358l-1.788 4.173-3.903-.488c.31-.821.636-1.638.993-2.442zM9 61c0-1.103.897-2 2-2h4.666l-.461 2zm34 0h-5.153l-.333-2H41c1.103 0 2 .897 2 2zm-3-10.819V57h-2.82l-1.194-7.165a.996.996 0 0 0-.279-.542l-8-8a1 1 0 0 0-1.366-.045l-8 7a.999.999 0 0 0-.316.527L16.128 57h-3.975l1.802-12.611 5.272-7.19a48.396 48.396 0 0 1 3.708-4.449l9.101 7.001A2.978 2.978 0 0 0 31 42c0 1.654 1.346 3 3 3h4c.019 0 .036-.004.055-.004zm2.221-10.298A4.395 4.395 0 0 1 38 43h-4c-.551 0-1-.449-1-1s.449-1 1-1h3a3.23 3.23 0 0 0 3.214-2.877L40.672 34h3.358zM36.32 39l2.023-2.142-.116 1.044A1.233 1.233 0 0 1 37 39zM55 18.364c0 .934-.259 1.82-.704 2.612A5.79 5.79 0 0 1 54 19.171V18a1 1 0 0 0-1.317-.949 4.093 4.093 0 0 1-4.212-.994l-2.001-2.001A5.31 5.31 0 0 1 49.636 13 5.37 5.37 0 0 1 55 18.364zm-10.429-2.521.429-.429 2.057 2.057A6.085 6.085 0 0 0 52 19.234a7.791 7.791 0 0 0 .867 3.485l-.71.71A5.329 5.329 0 0 1 48.364 25 5.37 5.37 0 0 1 43 19.636c0-1.433.558-2.78 1.571-3.793zm-3.151 6.222a7.392 7.392 0 0 0 2.922 3.732l.639 5.114L44.646 32h-3.751l.099-.89-1.987-.221-.297 2.667-4.816 5.1-9.551-7.347a47.972 47.972 0 0 1 8.188-6.461c.243-.152.41-.401.457-.684a46.826 46.826 0 0 1 1.735-6.942l3.752.469-.392.914a1 1 0 0 0 .319 1.194z" fill="#a77e42" data-original="#000000"></path></g></svg>
