<svg xmlns="http://www.w3.org/2000/svg" version="1.1" xmlns:xlink="http://www.w3.org/1999/xlink" xmlns:svgjs="http://svgjs.com/svgjs" width="512" height="512" x="0" y="0" viewBox="0 0 60 60" style="enable-background:new 0 0 512 512" xml:space="preserve" class=""><g><path d="M57 30c0-10.654-6.589-19-15-19a12.05 12.05 0 0 0-5.7 1.354 13.655 13.655 0 0 1-3.3 1.221 39.709 39.709 0 0 0-.129-1.876 6.9 6.9 0 0 1 2.509-2.358 5.173 5.173 0 0 0 2.53.659q.273 0 .546-.027a7.7 7.7 0 0 0 5.463-2.987 5.236 5.236 0 0 1 2.219-1.716h.012a1.249 1.249 0 0 0 .821-.907 1.212 1.212 0 0 0-.357-1.149c-.921-.85-4.271-3.59-8.62-3.165a5.632 5.632 0 0 0-4.676 3.571 17.022 17.022 0 0 0-1.767 1.034 19.773 19.773 0 0 0-1.47-3.608 1.987 1.987 0 0 0-1.315-.995A2.028 2.028 0 0 0 27.115.4l-1.667 1.231a2.025 2.025 0 0 0-.594 2.521 24.589 24.589 0 0 1 2.067 9.4 13.665 13.665 0 0 1-3.213-1.2A12.056 12.056 0 0 0 18 11C9.589 11 3 19.346 3 30c0 11.091 3.536 18.2 6.5 22.22C13.05 57.019 17.839 60 22 60a6.9 6.9 0 0 0 3.2-.748 10.635 10.635 0 0 1 9.587 0A6.9 6.9 0 0 0 38 60c4.161 0 8.95-2.981 12.5-7.78C53.464 48.2 57 41.091 57 30ZM38.192 2.035A7.45 7.45 0 0 1 38.917 2a9.437 9.437 0 0 1 5.418 1.924 9.233 9.233 0 0 0-1.9 1.717 5.7 5.7 0 0 1-4.182 2.34 3.106 3.106 0 0 1-2.366-.707A2.575 2.575 0 0 1 35 5.4a3.46 3.46 0 0 1 3.192-3.365ZM28.321 2a19.53 19.53 0 0 1 1.689 4.581 1 1 0 0 0 1.619.521 12.416 12.416 0 0 1 1.452-1.056 4.5 4.5 0 0 0 .758 1.9A7.332 7.332 0 0 0 30.9 11.18a1.021 1.021 0 0 0-.054.442c.11 1.066.176 2.211.225 3.378l-2.09.01c-.131-6.365-1.518-10.089-2.335-11.777ZM38 58a4.872 4.872 0 0 1-2.3-.531 12.636 12.636 0 0 0-11.413 0A4.87 4.87 0 0 1 22 58c-6.948 0-17-9.971-17-28 0-9.532 5.71-17 13-17a10.083 10.083 0 0 1 4.776 1.126 15.653 15.653 0 0 0 4.31 1.5A1.977 1.977 0 0 0 28.95 17h2.12a1.951 1.951 0 0 0 1.872-1.384 15.646 15.646 0 0 0 4.286-1.492A10.077 10.077 0 0 1 42 13c7.29 0 13 7.468 13 17 0 18.029-10.052 28-17 28Z" fill="#a77e42" data-original="#000000"></path><path d="M18 16c-4.916 0-9.024 4.878-9.99 11.863a1 1 0 0 0 .853 1.127A.925.925 0 0 0 9 29a1 1 0 0 0 .989-.863C10.816 22.169 14.109 18 18 18a1 1 0 0 0 0-2Z" fill="#a77e42" data-original="#000000"></path></g></svg>
