<svg xmlns="http://www.w3.org/2000/svg" version="1.1" xmlns:xlink="http://www.w3.org/1999/xlink" xmlns:svgjs="http://svgjs.com/svgjs" width="512" height="512" x="0" y="0" viewBox="0 0 512.002 512.002" style="enable-background:new 0 0 512 512" xml:space="preserve" class=""><g><path d="M145.798 500.849c-.115-.21-11.797-21.193-25.524-48.67a7.497 7.497 0 0 0-10.061-3.357 7.5 7.5 0 0 0-3.358 10.061c13.888 27.801 25.725 49.06 25.843 49.271a7.499 7.499 0 0 0 10.203 2.897 7.498 7.498 0 0 0 2.897-10.202zM424.57 301.961h-17.622a101.395 101.395 0 0 0-4.268-11.698c-5.435-12.418-13.189-23.475-23.046-32.86a124.336 124.336 0 0 1-7.487-7.781c-8.517-9.629-15.567-20.541-20.956-32.435a7.5 7.5 0 1 0-13.663 6.19 145.394 145.394 0 0 0 16.052 27.158c-44.596 12.581-84.301 18.966-118.14 18.966-33.974 0-73.687-6.37-118.16-18.921 19.073-25.428 29.47-56.831 29.47-89.65v-13.564h142.07c9.649 0 17.5-7.851 17.5-17.5V92.197c0-9.649-7.851-17.5-17.5-17.5H146.75V48.5h113.513c4.142 0 7.5-3.357 7.5-7.5s-3.358-7.5-7.5-7.5H118.11c-14.336 0-26-11.663-26-26a7.5 7.5 0 0 0-7.5-7.5 7.5 7.5 0 0 0-7.5 7.5c0 22.607 18.393 41 41 41h13.638v26.197H87.433c-17.704 0-32.106 14.402-32.106 32.105 0 0 .052 57.743.151 58.228 1.558 16.261 15.293 29.021 31.955 29.021h40.301c-5.11 20.66-14.993 39.751-29.037 55.612a125.35 125.35 0 0 1-7.452 7.736c-20.331 19.369-31.527 45.493-31.527 73.56 0 6.972 1.484 15.666 4.539 26.586 5.043 17.976 14.369 41.688 27.717 70.48a7.502 7.502 0 0 0 6.809 4.348 7.5 7.5 0 0 0 6.799-10.656c-10.745-23.176-18.776-42.856-23.968-58.698h3.444c59.807 0 114.375 32.574 142.88 85.116V504.5a7.5 7.5 0 0 0 7.5 7.5 7.5 7.5 0 0 0 7.5-7.5v-56.388c17.904-32.978 46.756-58.891 81.441-73.073.292-.119.567-.26.835-.41h59.993c-19.885 53.824-59.71 125.464-60.13 126.219a7.5 7.5 0 0 0 6.543 11.153 7.497 7.497 0 0 0 6.557-3.848c1.318-2.364 24.079-43.306 43.833-86.838h42.558c16.66 0 30.393-12.757 31.955-29.014.099-.487.152-58.235.152-58.235.001-17.703-14.402-32.105-32.105-32.105zM70.327 106.803c0-9.432 7.674-17.105 17.106-17.105h201.386c1.378 0 2.5 1.121 2.5 2.5v37.668c0 1.379-1.122 2.5-2.5 2.5h-18.88V116.37a7.5 7.5 0 0 0-7.5-7.5 7.5 7.5 0 0 0-7.5 7.5v15.996h-15.984V116.37a7.5 7.5 0 0 0-7.5-7.5 7.5 7.5 0 0 0-7.5 7.5v15.996h-15.983V116.37a7.5 7.5 0 0 0-7.5-7.5 7.5 7.5 0 0 0-7.5 7.5v15.996h-15.984V116.37a7.5 7.5 0 0 0-7.5-7.5 7.5 7.5 0 0 0-7.5 7.5v15.996h-15.983V116.37a7.5 7.5 0 0 0-7.5-7.5 7.5 7.5 0 0 0-7.5 7.5v15.996h-15.984V116.37a7.5 7.5 0 0 0-7.5-7.5 7.5 7.5 0 0 0-7.5 7.5v15.996H87.433c-6.292 0-12.156 1.787-17.106 4.893v-30.456zm17.106 72.249c-9.014 0-16.404-7.012-17.044-15.866a17.04 17.04 0 0 1 17.044-15.82h44.315v13.564c0 6.109-.402 12.161-1.185 18.122h-43.13zm148.01 252.16c-32.367-51.635-88.844-83.192-150.385-83.192h-7.786c-1.687-6.929-2.554-12.665-2.554-17.06 0-23.922 9.544-46.189 26.874-62.7a141.53 141.53 0 0 0 5.097-5.124c48.433 14.164 91.738 21.364 128.75 21.364 36.861 0 80.155-7.213 128.714-21.403a140.403 140.403 0 0 0 5.134 5.165c8.408 8.007 15.02 17.433 19.651 28.015a85.964 85.964 0 0 1 2.239 5.685H223.184c-9.649 0-17.5 7.851-17.5 17.5v37.668c0 9.649 7.851 17.5 17.5 17.5h69.146a178.358 178.358 0 0 0-56.887 56.582zm189.127-24.897h-35.929c4.655-10.841 8.951-21.586 12.516-31.687h23.413a17.042 17.042 0 0 1 17.044 15.82c-.64 8.855-8.03 15.867-17.044 15.867zm17.106-41.794c-4.951-3.105-10.815-4.893-17.106-4.893h-12.587v-15.996a7.5 7.5 0 0 0-7.5-7.5 7.5 7.5 0 0 0-7.5 7.5v15.996h-15.984v-15.996a7.5 7.5 0 0 0-7.5-7.5 7.5 7.5 0 0 0-7.5 7.5v15.996h-15.983v-15.996a7.5 7.5 0 0 0-7.5-7.5 7.5 7.5 0 0 0-7.5 7.5v15.996h-15.985v-15.996a7.5 7.5 0 0 0-7.5-7.5 7.5 7.5 0 0 0-7.5 7.5v15.996h-15.983v-15.996a7.5 7.5 0 0 0-7.5-7.5 7.5 7.5 0 0 0-7.5 7.5v15.996h-15.984v-15.996a7.5 7.5 0 0 0-7.5-7.5 7.5 7.5 0 0 0-7.5 7.5v15.996h-18.88a2.503 2.503 0 0 1-2.5-2.5V319.46c0-1.379 1.122-2.5 2.5-2.5H424.57c9.432.001 17.106 7.675 17.106 17.106v30.455z" fill="#a77e42" data-original="#000000" class=""></path><path d="M235.82 207.674a7.5 7.5 0 0 0-7.5 7.5v9a7.5 7.5 0 0 0 7.5 7.5 7.5 7.5 0 0 0 7.5-7.5v-9a7.5 7.5 0 0 0-7.5-7.5zM385.819 0a7.5 7.5 0 0 0-7.5 7.5c0 14.337-11.664 26-26 26h-56.65c-4.142 0-7.5 3.357-7.5 7.5s3.357 7.5 7.499 7.5h28.46v112.43c0 9.405.88 18.874 2.615 28.141a7.502 7.502 0 0 0 8.753 5.992 7.501 7.501 0 0 0 5.992-8.752 138.277 138.277 0 0 1-2.359-25.381V48.5h13.19c22.607 0 41-18.393 41-41a7.5 7.5 0 0 0-7.5-7.5z" fill="#a77e42" data-original="#000000" class=""></path></g></svg>
