<svg xmlns="http://www.w3.org/2000/svg" version="1.1" xmlns:xlink="http://www.w3.org/1999/xlink" xmlns:svgjs="http://svgjs.com/svgjs" width="512" height="512" x="0" y="0" viewBox="0 0 1000 1000" style="enable-background:new 0 0 512 512" xml:space="preserve" class=""><g><path d="M383.84 696.25a16 16 0 0 1-11.32-27.32l296.41-296.41a16 16 0 0 1 22.63 22.63L395.15 691.56a16 16 0 0 1-11.31 4.69zM322.85 635.27A16 16 0 0 1 311.54 608L608 311.54a16 16 0 1 1 22.63 22.63L334.17 630.58a16 16 0 0 1-11.32 4.69zM849.11 231a16 16 0 0 1-11.31-27.31l24.79-24.79a27.12 27.12 0 1 0-38.36-38.35l-24.79 24.79a16 16 0 0 1-22.63-22.63l24.79-24.79a59.12 59.12 0 1 1 83.61 83.61l-24.79 24.79a16 16 0 0 1-11.31 4.68zM159.69 902.54a59.13 59.13 0 0 1-41.8-100.94l24.79-24.79a16 16 0 0 1 22.63 22.63l-24.79 24.79a27.12 27.12 0 1 0 38.35 38.35l24.79-24.78a16 16 0 1 1 22.63 22.62l-24.79 24.79a58.75 58.75 0 0 1-41.81 17.33z" fill="#a77e42" data-original="#000000" class=""></path><path d="M276 916a40.41 40.41 0 0 1-28.64-11.84L95.86 752.62a40.52 40.52 0 0 1 0-57.29l21.63-21.62a40.5 40.5 0 0 1 57.29 0l151.51 151.51a40.51 40.51 0 0 1 0 57.29l-21.62 21.63A40.41 40.41 0 0 1 276 916zM146.13 693.84a8.43 8.43 0 0 0-6 2.49L118.49 718a8.51 8.51 0 0 0 0 12L270 881.51a8.51 8.51 0 0 0 12 0l21.63-21.63a8.51 8.51 0 0 0 0-12L152.15 696.33a8.44 8.44 0 0 0-6.02-2.49z" fill="#a77e42" data-original="#000000" class=""></path><path d="M355.58 883a40.24 40.24 0 0 1-28.64-11.87L128.88 673.06a40.5 40.5 0 0 1 0-57.29l21.62-21.62a40.5 40.5 0 0 1 57.29 0l198.06 198.06a40.5 40.5 0 0 1 0 57.29l-21.62 21.63A40.27 40.27 0 0 1 355.58 883zM179.15 614.28a8.5 8.5 0 0 0-6 2.49l-21.64 21.63a8.49 8.49 0 0 0 0 12l198.06 198.09a8.49 8.49 0 0 0 12 0l21.63-21.62a8.51 8.51 0 0 0 0-12l-198.04-198.1a8.46 8.46 0 0 0-6.01-2.49z" fill="#a77e42" data-original="#000000" class=""></path><path d="M435.14 850a40.23 40.23 0 0 1-28.64-11.86L161.89 593.5a40.55 40.55 0 0 1 0-57.28l21.63-21.63a40.56 40.56 0 0 1 57.29 0l244.6 244.61a40.49 40.49 0 0 1 0 57.28l-21.63 21.63A40.23 40.23 0 0 1 435.14 850zm-223-315.24a8.46 8.46 0 0 0-6 2.49l-21.63 21.62a8.52 8.52 0 0 0 0 12l244.61 244.6a8.51 8.51 0 0 0 12 0l21.62-21.63a8.49 8.49 0 0 0 0-12l-244.6-244.6a8.49 8.49 0 0 0-5.98-2.51zM853.87 338.16a40.22 40.22 0 0 1-28.65-11.87L673.71 174.78a40.51 40.51 0 0 1 0-57.29l21.63-21.63a40.56 40.56 0 0 1 57.29 0l151.51 151.52a40.52 40.52 0 0 1 0 57.29l-21.63 21.62a40.2 40.2 0 0 1-28.64 11.87zM724 116a8.49 8.49 0 0 0-6 2.49l-21.63 21.63a8.51 8.51 0 0 0 0 12l151.48 151.55a8.51 8.51 0 0 0 12 0L881.51 282a8.51 8.51 0 0 0 0-12L730 118.49a8.48 8.48 0 0 0-6-2.49z" fill="#a77e42" data-original="#000000" class=""></path><path d="M820.85 417.72a40.24 40.24 0 0 1-28.64-11.87L594.15 207.79a40.5 40.5 0 0 1 0-57.29l21.62-21.62a40.5 40.5 0 0 1 57.29 0l198.06 198.06a40.5 40.5 0 0 1 0 57.29l-21.62 21.62a40.28 40.28 0 0 1-28.65 11.87zM644.42 149a8.45 8.45 0 0 0-6 2.5l-21.63 21.62a8.51 8.51 0 0 0 0 12l198.05 198.11a8.51 8.51 0 0 0 12 0l21.62-21.63a8.49 8.49 0 0 0 0-12L650.43 151.51a8.43 8.43 0 0 0-6.01-2.51z" fill="#a77e42" data-original="#000000" class=""></path><path d="M787.84 497.26a40.38 40.38 0 0 1-28.65-11.85L514.59 240.8a40.49 40.49 0 0 1 0-57.28l21.63-21.63a40.51 40.51 0 0 1 57.28 0L838.11 406.5a40.55 40.55 0 0 1 0 57.28l-21.63 21.63a40.38 40.38 0 0 1-28.64 11.85zM564.86 182a8.46 8.46 0 0 0-6 2.49l-21.62 21.63a8.49 8.49 0 0 0 0 12l244.6 244.6a8.51 8.51 0 0 0 12 0l21.63-21.62a8.51 8.51 0 0 0 0-12L570.88 184.52a8.46 8.46 0 0 0-6.02-2.52z" fill="#a77e42" data-original="#000000" class=""></path></g></svg>
